# xmcd
#
# Track frame offsets:
#	150
#	23007
#	40195
#	60095
#	75545
#	101207
#	118411
#	137474
#	152454
#	167905
#	184834
#	201727
#	232495
#	257555
#
# Disc length: 3677 seconds
#
# Revision: 0
# Processed by: cddbd v1.4PL0 Copyright (c) Steve Scherf et al.
# Submitted via: dBpowerAMP V4.0
#
DISCID=bf0e5b0e
DTITLE=조성모 - 베스트 2CD
DYEAR=1900
DGENRE=Ballad
TTITLE0=To Heaven
TTITLE1=후회
TTITLE2=마지막까지
TTITLE3=Best
TTITLE4=For Your Soul
TTITLE5=상처
TTITLE6=You&I
TTITLE7=Sweet Baby
TTITLE8=Night Mare
TTITLE9=깊은밤을 날아서
TTITLE10=입영열차 안에서
TTITLE11=아시나요
TTITLE12=다짐
TTITLE13=그대는 모릅니다
EXTD=조성모 베스트 앨범 2CD
EXTT0=
EXTT1=
EXTT2=
EXTT3=
EXTT4=
EXTT5=
EXTT6=
EXTT7=
EXTT8=
EXTT9=
EXTT10=
EXTT11=
EXTT12=
EXTT13=
PLAYORDER=
